<svg xmlns="http://www.w3.org/2000/svg" xmlns:xlink="http://www.w3.org/1999/xlink" version="1.1" x="0px" y="0px" viewBox="0 0 100 100" enable-background="new 0 0 100 100" xml:space="preserve"><g><g><rect x="42.433" y="55.306" width="14.371" height="8.786"/><rect x="42.433" y="42.371" width="14.371" height="10.161"/><path d="M59.578,42.371v10.161h14.104c0.768,0,1.389,0.621,1.389,1.387c0,0.767-0.621,1.387-1.389,1.387H59.578v8.786h13.068    c0.767,0,1.389,0.62,1.389,1.386c0,0.767-0.622,1.388-1.389,1.388H59.578v10.43c0,0.767-0.621,1.388-1.387,1.388    c-0.767,0-1.388-0.621-1.388-1.388v-10.43H42.433v10.43c0,0.767-0.622,1.388-1.387,1.388c-0.766,0-1.388-0.621-1.388-1.388v-10.43    H26.744c-0.767,0-1.388-0.621-1.388-1.388c0-0.766,0.621-1.386,1.388-1.386h12.915v-8.786H24.14c-0.766,0-1.388-0.62-1.388-1.387    c0-0.766,0.622-1.387,1.388-1.387h15.519V42.371H17.212c0,0.14,0.013,0.278,0.041,0.416l6.607,33.255    c0.124,2.945,2.557,5.303,5.532,5.303h40.639c2.977,0,5.41-2.36,5.531-5.308l6.496-33.258c0.027-0.134,0.04-0.271,0.04-0.408    H59.578z"/></g><path d="M85.222,31.082H62.908l3.693-8.802h14.77c1.176,0,2.129-0.954,2.129-2.13s-0.953-2.129-2.129-2.129H65.186   c-0.858,0-1.633,0.514-1.963,1.305l-4.932,11.756H39.392l-4.931-11.756c-0.331-0.791-1.104-1.305-1.963-1.305H16.313   c-1.176,0-2.129,0.953-2.129,2.129s0.954,2.13,2.129,2.13h14.769l3.693,8.802H14.449c-1.882,0-3.407,1.526-3.407,3.407   s1.525,3.407,3.407,3.407h70.773c1.882,0,3.407-1.526,3.407-3.407S87.104,31.082,85.222,31.082z"/></g></svg>